# xmcd
# 
# Track frame offsets:
#     183
#     14823
#     36725
#     57970
#     92198
# 
# Disc length: 1571
# 
# Revision: 4
# Processed by: cddbd v1.5.2PL0 Copyright (c) Steve Scherf et al.
# Submitted via: BonkEnc v1.0.8
# 
DISCID=46062105
DTITLE=The Outhere Brothers - La La La Hey Hey
DYEAR=1995
DGENRE=House
TTITLE0=La La La Hey Hey (O.H.B. Airlplay Edit)
TTITLE1=La La La Hey Hey (Outhere Brothers Mix)
TTITLE2=La La La Hey Hey (Pegasus Mix)
TTITLE3=La La La Hey Hey (Dancing Divaz Club Mix)
TTITLE4=La La La Hey Hey (Dancing Divaz Rhythm Mix)
EXTD=
EXTT0=
EXTT1=
EXTT2=
EXTT3=
EXTT4=
PLAYORDER=
